<svg width="24" height="24" viewBox="0 0 24 24" fill="none" xmlns="http://www.w3.org/2000/svg">
<path fill-rule="evenodd" clip-rule="evenodd" d="M23.435 5.68514C23.613 5.1107 23.435 4.69311 22.6475 4.69311H20.029C19.3685 4.69311 19.0635 5.05876 18.8855 5.44987C18.8855 5.44987 17.5385 8.79061 15.6575 10.9565C15.0475 11.5829 14.768 11.7917 14.4375 11.7917C14.2595 11.7917 14.0305 11.5829 14.0305 11.0089V5.65815C14.0305 4.97982 13.8275 4.66663 13.268 4.66663H9.15001C8.74301 4.66663 8.48901 4.97982 8.48901 5.29302C8.48901 5.94538 9.42951 6.10223 9.53101 7.92894V11.8981C9.53101 12.7593 9.38101 12.9166 9.04801 12.9166C8.15851 12.9166 5.99801 9.54991 4.70201 5.71366C4.45001 4.95385 4.19401 4.66663 3.533 4.66663H0.889501C0.127 4.66663 0 5.03176 0 5.42339C0 6.1282 0.889501 9.67723 4.14301 14.3746C6.30351 17.583 9.37901 19.3073 12.1495 19.3073C13.8275 19.3073 14.0305 18.9157 14.0305 18.2633V15.8362C14.0305 15.0535 14.183 14.9231 14.717 14.9231C15.098 14.9231 15.7845 15.1314 17.335 16.6714C19.114 18.4981 19.419 19.3333 20.4105 19.3333H23.0285C23.791 19.3333 24.147 18.9417 23.9435 18.1849C23.715 17.4282 22.8505 16.3322 21.732 15.0275C21.122 14.2972 20.207 13.488 19.9275 13.0964C19.5465 12.5744 19.648 12.3656 19.9275 11.8961C19.902 11.8961 23.105 7.25061 23.435 5.68311" fill="#EFF3F5"/>
</svg>
